<mxfile host="Electron" agent="Mozilla/5.0 (Macintosh; Intel Mac OS X 10_15_7) AppleWebKit/537.36 (KHTML, like Gecko) draw.io/24.7.17 Chrome/128.0.6613.36 Electron/32.0.1 Safari/537.36" version="24.7.17">
  <diagram name="Page-1" id="HMv95JZd37HtdOTtruG_">
    <mxGraphModel dx="662" dy="498" grid="1" gridSize="10" guides="1" tooltips="1" connect="1" arrows="1" fold="1" page="1" pageScale="1" pageWidth="850" pageHeight="1100" math="0" shadow="0">
      <root>
        <mxCell id="0" />
        <mxCell id="1" parent="0" />
        <mxCell id="NupbNEhgEPkH226zBjh8-1" value="" style="group" vertex="1" connectable="0" parent="1">
          <mxGeometry x="357" y="590" width="334" height="150" as="geometry" />
        </mxCell>
        <mxCell id="gICdmpGwAMncEI22UhPr-41" value="" style="rounded=1;whiteSpace=wrap;html=1;fillColor=#FF6700;strokeColor=#000000;arcSize=7;" parent="NupbNEhgEPkH226zBjh8-1" vertex="1">
          <mxGeometry width="334" height="150" as="geometry" />
        </mxCell>
        <mxCell id="gICdmpGwAMncEI22UhPr-7" value="Middleware" style="html=1;overflow=block;blockSpacing=1;whiteSpace=wrap;fontSize=13.3;fontStyle=1;spacing=0;strokeColor=#000000;fillOpacity=100;rounded=1;absoluteArcSize=1;arcSize=108;fillColor=#FFFFFF;strokeWidth=NaN;container=1;pointerEvents=0;collapsible=0;recursiveResize=0;lucidId=lJpaGHonDv_a;verticalAlign=top;fontColor=#000000;" parent="NupbNEhgEPkH226zBjh8-1" vertex="1">
          <mxGeometry x="44" y="10.714285714285714" width="250" height="128.57142857142856" as="geometry" />
        </mxCell>
        <mxCell id="gICdmpGwAMncEI22UhPr-8" value="Responsible for:" style="html=1;overflow=block;blockSpacing=1;whiteSpace=wrap;fontSize=13.3;fontColor=#000000;align=left;spacing=0;verticalAlign=middle;strokeColor=none;strokeOpacity=100;fillOpacity=100;rounded=1;absoluteArcSize=1;arcSize=9;fillColor=none;strokeWidth=1.5;lucidId=sTpa8f46LPAu;" parent="gICdmpGwAMncEI22UhPr-7" vertex="1">
          <mxGeometry x="20" width="210" height="53.57142857142857" as="geometry" />
        </mxCell>
        <mxCell id="gICdmpGwAMncEI22UhPr-9" value="&lt;ul style=&quot;margin: 0px; padding-left: 10px; list-style-position: inside; list-style-type: disc; font-size: 10px;&quot;&gt;&lt;li style=&quot;text-align: left;&quot;&gt;Queueing incoming messages the device is subscribed to&lt;/li&gt;&lt;li style=&quot;text-align: left;&quot;&gt;Transmitting messages published messages by formatting the message and pushing it to the IP abstraction&lt;/li&gt;&lt;li style=&quot;text-align: left;&quot;&gt;Publishing data locally (if it is a topic of interest)&lt;/li&gt;&lt;/ul&gt;" style="html=1;overflow=block;blockSpacing=1;whiteSpace=wrap;fontSize=13;spacing=0;strokeColor=none;strokeOpacity=100;fillOpacity=100;rounded=1;absoluteArcSize=1;arcSize=9;fillColor=none;strokeWidth=1.5;lucidId=CVpaMHye50hT;container=1;collapsible=0;fontColor=#000000;" parent="gICdmpGwAMncEI22UhPr-7" vertex="1">
          <mxGeometry x="10" y="10.714285714285714" width="230" height="128.57142857142856" as="geometry" />
        </mxCell>
        <mxCell id="TYPSVwXlaEJTnAn6_-3O-27" value="&lt;font style=&quot;font-size: 9px;&quot;&gt;Calls API&lt;/font&gt;" style="text;html=1;align=center;verticalAlign=middle;whiteSpace=wrap;rounded=0;fontStyle=1" parent="NupbNEhgEPkH226zBjh8-1" vertex="1">
          <mxGeometry x="-7" y="89" width="60" height="30" as="geometry" />
        </mxCell>
        <mxCell id="NupbNEhgEPkH226zBjh8-30" value="" style="endArrow=classic;html=1;rounded=0;" edge="1" parent="NupbNEhgEPkH226zBjh8-1">
          <mxGeometry width="50" height="50" relative="1" as="geometry">
            <mxPoint x="-16" y="60" as="sourcePoint" />
            <mxPoint x="43" y="60" as="targetPoint" />
          </mxGeometry>
        </mxCell>
        <mxCell id="NupbNEhgEPkH226zBjh8-38" value="&lt;font style=&quot;font-size: 9px;&quot;&gt;Passes Rx&lt;/font&gt;" style="text;html=1;align=center;verticalAlign=middle;whiteSpace=wrap;rounded=0;fontStyle=1" vertex="1" parent="NupbNEhgEPkH226zBjh8-1">
          <mxGeometry x="-7" y="30" width="60" height="30" as="geometry" />
        </mxCell>
        <mxCell id="TYPSVwXlaEJTnAn6_-3O-5" value="&lt;b&gt;IP Stack Abstraction&lt;/b&gt;" style="rounded=1;whiteSpace=wrap;html=1;fillColor=#FFFFFF;strokeColor=#000000;arcSize=7;verticalAlign=top;fontColor=#000000;" parent="1" vertex="1">
          <mxGeometry x="120" y="420" width="223" height="320" as="geometry" />
        </mxCell>
        <mxCell id="TYPSVwXlaEJTnAn6_-3O-6" value="&lt;ul style=&quot;margin: 0px; padding-left: 10px; list-style-position: inside; list-style-type: disc; font-size: 11px;&quot;&gt;&lt;li style=&quot;text-align: left;&quot;&gt;Providing a layer of abstraction away from from the selected IP stack that is being used within the application&lt;/li&gt;&lt;li style=&quot;text-align: left;&quot;&gt;Handling received UDP messages&amp;nbsp; and passing it to middleware&lt;/li&gt;&lt;li style=&quot;text-align: left;&quot;&gt;&lt;span style=&quot;background-color: initial;&quot;&gt;Transmitting UDP messages&lt;/span&gt;&lt;/li&gt;&lt;li style=&quot;text-align: left;&quot;&gt;&lt;span style=&quot;background-color: initial;&quot;&gt;Binding different ports to applications using UDP&lt;/span&gt;&lt;br&gt;&lt;/li&gt;&lt;/ul&gt;" style="html=1;overflow=block;blockSpacing=1;whiteSpace=wrap;fontSize=13;spacing=0;strokeColor=none;strokeOpacity=100;fillOpacity=100;rounded=1;absoluteArcSize=1;arcSize=9;fillColor=none;strokeWidth=1.5;lucidId=CVpaMHye50hT;container=1;collapsible=0;fontColor=#000000;" parent="1" vertex="1">
          <mxGeometry x="130" y="460" width="203" height="120" as="geometry" />
        </mxCell>
        <mxCell id="TYPSVwXlaEJTnAn6_-3O-7" value="Responsible for:" style="html=1;overflow=block;blockSpacing=1;whiteSpace=wrap;fontSize=13.3;fontColor=#000000;align=left;spacing=0;verticalAlign=middle;strokeColor=none;strokeOpacity=100;fillOpacity=100;rounded=1;absoluteArcSize=1;arcSize=9;fillColor=none;strokeWidth=1.5;lucidId=sTpa8f46LPAu;" parent="TYPSVwXlaEJTnAn6_-3O-6" vertex="1">
          <mxGeometry y="-48" width="203" height="75" as="geometry" />
        </mxCell>
        <mxCell id="TYPSVwXlaEJTnAn6_-3O-18" value="" style="group" parent="1" vertex="1" connectable="0">
          <mxGeometry x="136.5" y="460" width="190" height="280" as="geometry" />
        </mxCell>
        <mxCell id="SoL7yf-537_D2qSoBvsr-10" value="" style="group" parent="TYPSVwXlaEJTnAn6_-3O-18" vertex="1" connectable="0">
          <mxGeometry x="0.83" y="127.72" width="188.34" height="142.28" as="geometry" />
        </mxCell>
        <mxCell id="TYPSVwXlaEJTnAn6_-3O-19" value="API" style="html=1;overflow=block;blockSpacing=1;whiteSpace=wrap;fontSize=13.3;fontStyle=1;spacing=0;verticalAlign=top;strokeColor=#000000;rounded=1;absoluteArcSize=1;arcSize=93;fillColor=#FF6700;strokeWidth=NaN;container=0;pointerEvents=0;collapsible=0;recursiveResize=0;lucidId=_Jpa2be36_ob;fontColor=#000000;" parent="SoL7yf-537_D2qSoBvsr-10" vertex="1">
          <mxGeometry width="188.34" height="142.28" as="geometry" />
        </mxCell>
        <mxCell id="TYPSVwXlaEJTnAn6_-3O-20" value="&lt;ul style=&quot;margin: 0px; padding-left: 10px; list-style-position: inside; list-style-type: disc;&quot;&gt;&lt;li style=&quot;text-align: left;&quot;&gt;&lt;span style=&quot;background-color: initial;&quot;&gt;bm_udp_bind_port&lt;/span&gt;&lt;br&gt;&lt;/li&gt;&lt;li style=&quot;text-align: left;&quot;&gt;bm_udp_new&lt;/li&gt;&lt;li style=&quot;text-align: left;&quot;&gt;bm_udp_get_payload&lt;/li&gt;&lt;li style=&quot;text-align: left;&quot;&gt;bm_udp_reference_update&lt;/li&gt;&lt;li style=&quot;text-align: left;&quot;&gt;bm_udp_cleanup&lt;/li&gt;&lt;li style=&quot;text-align: left;&quot;&gt;bm_udp_tx_perform&lt;/li&gt;&lt;/ul&gt;" style="html=1;overflow=block;blockSpacing=1;whiteSpace=wrap;fontSize=13;spacing=0;strokeColor=none;strokeOpacity=100;fillOpacity=100;rounded=1;absoluteArcSize=1;arcSize=9;fillColor=none;strokeWidth=1.5;lucidId=sSpamT7Exnb7;container=1;collapsible=0;fontColor=#000000;" parent="SoL7yf-537_D2qSoBvsr-10" vertex="1">
          <mxGeometry y="3.0966823529411767" width="188.34" height="136.09500470588236" as="geometry" />
        </mxCell>
        <mxCell id="TYPSVwXlaEJTnAn6_-3O-26" value="" style="endArrow=classic;html=1;rounded=0;" parent="1" edge="1">
          <mxGeometry width="50" height="50" relative="1" as="geometry">
            <mxPoint x="402" y="679" as="sourcePoint" />
            <mxPoint x="343" y="679" as="targetPoint" />
          </mxGeometry>
        </mxCell>
        <mxCell id="NupbNEhgEPkH226zBjh8-2" value="" style="group" vertex="1" connectable="0" parent="1">
          <mxGeometry x="360" y="420" width="334" height="150" as="geometry" />
        </mxCell>
        <mxCell id="NupbNEhgEPkH226zBjh8-3" value="" style="rounded=1;whiteSpace=wrap;html=1;fillColor=#FF6700;strokeColor=#000000;arcSize=7;" vertex="1" parent="NupbNEhgEPkH226zBjh8-2">
          <mxGeometry width="334" height="150" as="geometry" />
        </mxCell>
        <mxCell id="NupbNEhgEPkH226zBjh8-4" value="Pub/Sub" style="html=1;overflow=block;blockSpacing=1;whiteSpace=wrap;fontSize=13.3;fontStyle=1;spacing=0;strokeColor=#000000;fillOpacity=100;rounded=1;absoluteArcSize=1;arcSize=108;fillColor=#FFFFFF;strokeWidth=NaN;container=1;pointerEvents=0;collapsible=0;recursiveResize=0;lucidId=lJpaGHonDv_a;verticalAlign=top;fontColor=#000000;" vertex="1" parent="NupbNEhgEPkH226zBjh8-2">
          <mxGeometry x="44" y="10.714285714285714" width="250" height="128.57142857142856" as="geometry" />
        </mxCell>
        <mxCell id="NupbNEhgEPkH226zBjh8-5" value="Responsible for:" style="html=1;overflow=block;blockSpacing=1;whiteSpace=wrap;fontSize=13.3;fontColor=#000000;align=left;spacing=0;verticalAlign=middle;strokeColor=none;strokeOpacity=100;fillOpacity=100;rounded=1;absoluteArcSize=1;arcSize=9;fillColor=none;strokeWidth=1.5;lucidId=sTpa8f46LPAu;" vertex="1" parent="NupbNEhgEPkH226zBjh8-4">
          <mxGeometry x="20" width="210" height="53.57142857142857" as="geometry" />
        </mxCell>
        <mxCell id="NupbNEhgEPkH226zBjh8-6" value="&lt;ul style=&quot;margin: 0px; padding-left: 10px; list-style-position: inside; list-style-type: disc; font-size: 10px;&quot;&gt;&lt;li style=&quot;text-align: left;&quot;&gt;&lt;span style=&quot;background-color: initial;&quot;&gt;Publishing to certain topics&lt;/span&gt;&lt;/li&gt;&lt;li style=&quot;text-align: left;&quot;&gt;&lt;span style=&quot;background-color: initial;&quot;&gt;Subscribing to topics of interest&lt;/span&gt;&lt;br&gt;&lt;/li&gt;&lt;li style=&quot;text-align: left;&quot;&gt;Unsubscribing from topics&lt;/li&gt;&lt;li style=&quot;text-align: left;&quot;&gt;Handling messages that the device is subscribed to&lt;/li&gt;&lt;/ul&gt;" style="html=1;overflow=block;blockSpacing=1;whiteSpace=wrap;fontSize=13;spacing=0;strokeColor=none;strokeOpacity=100;fillOpacity=100;rounded=1;absoluteArcSize=1;arcSize=9;fillColor=none;strokeWidth=1.5;lucidId=CVpaMHye50hT;container=1;collapsible=0;fontColor=#000000;" vertex="1" parent="NupbNEhgEPkH226zBjh8-4">
          <mxGeometry x="10" y="0.004285714285712672" width="230" height="128.57142857142856" as="geometry" />
        </mxCell>
        <mxCell id="NupbNEhgEPkH226zBjh8-9" value="&lt;font style=&quot;font-size: 9px;&quot;&gt;Calls API&lt;/font&gt;" style="text;html=1;align=center;verticalAlign=middle;whiteSpace=wrap;rounded=0;fontStyle=1" vertex="1" parent="NupbNEhgEPkH226zBjh8-2">
          <mxGeometry x="-10" y="75" width="63" height="32.14285714285714" as="geometry" />
        </mxCell>
        <mxCell id="NupbNEhgEPkH226zBjh8-8" value="" style="endArrow=classic;html=1;rounded=0;" edge="1" parent="1">
          <mxGeometry width="50" height="50" relative="1" as="geometry">
            <mxPoint x="405" y="495" as="sourcePoint" />
            <mxPoint x="343" y="495" as="targetPoint" />
          </mxGeometry>
        </mxCell>
        <mxCell id="NupbNEhgEPkH226zBjh8-11" value="" style="group" vertex="1" connectable="0" parent="1">
          <mxGeometry x="120" y="280" width="570" height="132.14285714285714" as="geometry" />
        </mxCell>
        <mxCell id="NupbNEhgEPkH226zBjh8-12" value="" style="rounded=1;whiteSpace=wrap;html=1;fillColor=#FF6700;strokeColor=#000000;arcSize=7;" vertex="1" parent="NupbNEhgEPkH226zBjh8-11">
          <mxGeometry width="570" height="120" as="geometry" />
        </mxCell>
        <mxCell id="NupbNEhgEPkH226zBjh8-13" value="Services" style="html=1;overflow=block;blockSpacing=1;whiteSpace=wrap;fontSize=13.3;fontStyle=1;spacing=0;strokeColor=#000000;fillOpacity=100;rounded=1;absoluteArcSize=1;arcSize=108;fillColor=#FFFFFF;strokeWidth=NaN;container=1;pointerEvents=0;collapsible=0;recursiveResize=0;lucidId=lJpaGHonDv_a;verticalAlign=top;fontColor=#000000;" vertex="1" parent="NupbNEhgEPkH226zBjh8-11">
          <mxGeometry x="75.09" y="8.57" width="426.65" height="91.43" as="geometry" />
        </mxCell>
        <mxCell id="NupbNEhgEPkH226zBjh8-14" value="Responsible for:" style="html=1;overflow=block;blockSpacing=1;whiteSpace=wrap;fontSize=13.3;fontColor=#000000;align=left;spacing=0;verticalAlign=middle;strokeColor=none;strokeOpacity=100;fillOpacity=100;rounded=1;absoluteArcSize=1;arcSize=9;fillColor=none;strokeWidth=1.5;lucidId=sTpa8f46LPAu;" vertex="1" parent="NupbNEhgEPkH226zBjh8-13">
          <mxGeometry x="34.13173652694611" width="358.3832335329341" height="42.85714285714287" as="geometry" />
        </mxCell>
        <mxCell id="NupbNEhgEPkH226zBjh8-15" value="&lt;ul style=&quot;margin: 0px; padding-left: 10px; list-style-position: inside; list-style-type: disc; font-size: 11px;&quot;&gt;&lt;li style=&quot;text-align: left;&quot;&gt;Registering service applications&lt;/li&gt;&lt;li style=&quot;text-align: left;&quot;&gt;&lt;span style=&quot;background-color: initial;&quot;&gt;Handling subscribed data received on the service&lt;/span&gt;&lt;/li&gt;&lt;li style=&quot;text-align: left;&quot;&gt;&lt;span style=&quot;background-color: initial;&quot;&gt;Requesting data from another device with the same registered service&lt;/span&gt;&lt;/li&gt;&lt;/ul&gt;" style="html=1;overflow=block;blockSpacing=1;whiteSpace=wrap;fontSize=13;spacing=0;strokeColor=none;strokeOpacity=100;fillOpacity=100;rounded=1;absoluteArcSize=1;arcSize=9;fillColor=none;strokeWidth=1.5;lucidId=CVpaMHye50hT;container=1;collapsible=0;fontColor=#000000;" vertex="1" parent="NupbNEhgEPkH226zBjh8-13">
          <mxGeometry x="24.905868263473057" y="-0.003956043956042468" width="392.5149700598803" height="102.85714285714288" as="geometry" />
        </mxCell>
        <mxCell id="NupbNEhgEPkH226zBjh8-18" value="" style="endArrow=classic;html=1;rounded=0;" edge="1" parent="NupbNEhgEPkH226zBjh8-15">
          <mxGeometry width="50" height="50" relative="1" as="geometry">
            <mxPoint x="310" y="91" as="sourcePoint" />
            <mxPoint x="310" y="140" as="targetPoint" />
          </mxGeometry>
        </mxCell>
        <mxCell id="NupbNEhgEPkH226zBjh8-19" value="&lt;font style=&quot;font-size: 9px;&quot;&gt;Calls&lt;/font&gt;" style="text;html=1;align=center;verticalAlign=middle;whiteSpace=wrap;rounded=0;fontStyle=1" vertex="1" parent="NupbNEhgEPkH226zBjh8-11">
          <mxGeometry x="410" y="100" width="50" height="20" as="geometry" />
        </mxCell>
        <mxCell id="NupbNEhgEPkH226zBjh8-20" value="" style="endArrow=classic;html=1;rounded=0;" edge="1" parent="1">
          <mxGeometry width="50" height="50" relative="1" as="geometry">
            <mxPoint x="570" y="601" as="sourcePoint" />
            <mxPoint x="570" y="560" as="targetPoint" />
          </mxGeometry>
        </mxCell>
        <mxCell id="NupbNEhgEPkH226zBjh8-21" value="" style="endArrow=classic;html=1;rounded=0;" edge="1" parent="1">
          <mxGeometry width="50" height="50" relative="1" as="geometry">
            <mxPoint x="480" y="559" as="sourcePoint" />
            <mxPoint x="480" y="600" as="targetPoint" />
          </mxGeometry>
        </mxCell>
        <mxCell id="NupbNEhgEPkH226zBjh8-28" value="&lt;font style=&quot;font-size: 9px;&quot;&gt;Calls Tx&lt;/font&gt;" style="text;html=1;align=center;verticalAlign=middle;whiteSpace=wrap;rounded=0;fontStyle=1" vertex="1" parent="1">
          <mxGeometry x="420" y="560" width="63" height="32.14285714285714" as="geometry" />
        </mxCell>
        <mxCell id="NupbNEhgEPkH226zBjh8-29" value="&lt;font size=&quot;1&quot;&gt;Handles Messages&lt;/font&gt;" style="text;html=1;align=center;verticalAlign=middle;whiteSpace=wrap;rounded=0;fontStyle=1" vertex="1" parent="1">
          <mxGeometry x="570" y="560" width="100" height="32.14" as="geometry" />
        </mxCell>
      </root>
    </mxGraphModel>
  </diagram>
</mxfile>
